<svg xmlns="http://www.w3.org/2000/svg" width="115" height="40" fill="none"><g clip-path="url(#a)"><path fill="#1A4FFF" d="M25.956 21.148c-.484 1.405-.915 2.65-1.341 3.895-.779 2.276-1.544 4.558-2.35 6.825-.087.245-.383.595-.585.596-3.246.038-6.491.026-9.876.026.346-1.024.655-1.958.977-2.886 2.39-6.87 4.788-13.737 7.167-20.612.165-.476.381-.671.915-.668 3.628.026 7.259.02 10.887.005.465-.002.719.105.89.585 2.726 7.67 5.473 15.332 8.214 22.997.054.15.08.31.139.542-.31.016-.568.04-.826.04-3.141.004-6.284-.016-9.425.017-.601.006-.837-.208-1.024-.751-1.127-3.274-2.289-6.534-3.442-9.8-.076-.215-.167-.425-.32-.812v.002zm.09-.095-4.07-11.365-3.94 11.365h8.01z"/></g><path fill="#fff" d="M92.51 30.891c-1.407.903-2.852 1.355-4.335 1.355-1.578 0-2.97-.338-4.178-1.013a7.486 7.486 0 0 1-2.823-2.809c-.675-1.197-1.012-2.566-1.012-4.106 0-1.683.332-3.147.998-4.392.665-1.245 1.583-2.21 2.752-2.894 1.169-.694 2.514-1.041 4.035-1.041 1.616 0 2.99.38 4.12 1.14 1.132.76 1.968 1.83 2.51 3.209.542 1.378.732 2.999.57 4.862h-3.835v-1.426c0-1.569-.252-2.695-.756-3.38-.494-.693-1.307-1.04-2.438-1.04-1.321 0-2.296.404-2.923 1.212-.618.798-.927 1.982-.927 3.55 0 1.436.31 2.548.927 3.337.627.78 1.545 1.169 2.752 1.169.76 0 1.412-.166 1.953-.5.542-.332.956-.812 1.24-1.44h4.065c-.38 1.902-1.279 3.304-2.695 4.207zm.77-8.57v2.88H83.07v-2.88h1.227l-.129 1.312h.457c.047-.427.228-.75.541-.97.314-.227.737-.341 1.27-.341h6.844zm-17.108 8.57c-1.14.903-2.718 1.355-4.733 1.355-1.94 0-3.508-.438-4.706-1.312-1.188-.884-1.934-2.33-2.238-4.335h4.035c.161.723.518 1.288 1.07 1.697.56.409 1.268.613 2.124.613.703 0 1.245-.133 1.625-.4.38-.275.57-.655.57-1.14 0-.304-.075-.546-.227-.727-.153-.19-.495-.376-1.027-.556-.523-.18-1.34-.418-2.453-.713-1.254-.323-2.257-.685-3.008-1.084-.751-.4-1.293-.874-1.626-1.426-.332-.56-.499-1.235-.499-2.024 0-.989.252-1.845.756-2.567.504-.732 1.212-1.293 2.125-1.682.922-.4 2.005-.6 3.25-.6 1.208 0 2.277.186 3.209.557.931.37 1.682.898 2.253 1.582.58.685.94 1.73 1.083 3.137h-3.978c-.067-.57-.314-1.021-.741-1.354-.428-.333-1.008-.528-1.74-.585-.713-.047-1.288.048-1.725.285-.428.238-.642.58-.642 1.027 0 .266.09.49.271.67.19.18.575.366 1.155.556.59.19 1.483.438 2.68.742 1.17.304 2.106.66 2.81 1.07.713.398 1.23.883 1.554 1.453.323.561.485 1.241.485 2.04 0 1.577-.57 2.818-1.712 3.721zM61.146 10.857v3.423h-3.878v-3.422h3.878zm0 5.561v15.4h-3.878v-15.4h3.878zm-11.994 6.474-.014 8.926H45.23v-15.4h3.422v.685c0 .456-.047.917-.142 1.383a32.176 32.176 0 0 1-.414 1.696h.328c.504-1.435.898-2.357 1.183-2.766.295-.409.642-.684 1.041-.827.4-.142.875-.214 1.426-.214h2.196v3.565l-2.538.014c-.96-.01-1.63.19-2.01.6-.419.446-.609 1.225-.57 2.338z"/><path fill="#A7ADBE" d="M103.308 8.157v6.005h-1.135V8.157h1.135zm-3.55 5.838c-.367.194-.792.292-1.276.292-.483 0-.909-.098-1.276-.292a2.146 2.146 0 0 1-.859-.83c-.206-.356-.308-.774-.308-1.255V8.165l1.15-.008V11.9c0 .198.034.377.1.538.067.162.159.3.276.417.12.117.257.207.413.271.158.061.326.092.504.092.184 0 .353-.032.509-.096.158-.064.296-.154.413-.27.117-.118.207-.257.27-.418.067-.161.1-.339.1-.534V8.157h1.152v3.753c0 .48-.103.9-.309 1.255a2.142 2.142 0 0 1-.859.83z"/><defs><clipPath id="a"><path fill="#fff" d="M11.804 8.324h29.19V32.51h-29.19z"/></clipPath></defs></svg>